<?xml version="1.0" encoding="utf-8"?>
<!-- Generator: Adobe Illustrator 14.0.0, SVG Export Plug-In . SVG Version: 6.00 Build 43363)  -->
<!DOCTYPE svg PUBLIC "-//W3C//DTD SVG 1.1//EN" "http://www.w3.org/Graphics/SVG/1.1/DTD/svg11.dtd">
<svg version="1.1" id="Layer_1" xmlns="http://www.w3.org/2000/svg" xmlns:xlink="http://www.w3.org/1999/xlink" x="0px" y="0px"
	 width="40px" height="40px" viewBox="0 0 40 40" enable-background="new 0 0 40 40" xml:space="preserve">
<path fill="#FFFFFF" d="M39.917,35.155L21.776,3.514c-0.479-0.646-1.124-1.302-1.769-1.302c-0.646,0-1.292,0.656-1.77,1.302
	L0.067,35.212c-0.171,0.667-0.126,1.75,1.515,2.573c0.007,0,0.012,0.003,0.02,0.003h36.812
	C40.107,36.94,40.105,35.814,39.917,35.155z M22.19,33.862c-0.521,0.435-1.25,0.651-2.185,0.651c-0.944,0-1.685-0.217-2.218-0.651
	c-0.535-0.433-0.802-1.036-0.802-1.81c0-0.781,0.257-1.388,0.773-1.822c0.515-0.433,1.264-0.649,2.248-0.649
	c0.973,0,1.711,0.217,2.212,0.649c0.5,0.435,0.752,1.041,0.752,1.822C22.97,32.827,22.71,33.43,22.19,33.862z M22.382,27.632h-4.724
	l-0.824-13.329c0-1.051,1.42-1.904,3.174-1.904c1.752,0,3.172,0.853,3.172,1.904L22.382,27.632z"/>
</svg>
